<svg width="128" height="128" version="1.1" viewBox="0 0 128 128" xmlns="http://www.w3.org/2000/svg">
 <g>
  <rect width="128" height="128" rx="24" fill="#343a40"/>
  <path transform="matrix(1.4089 0 0 1.4967 5.026 -29.478)" d="m38.243 41.38-0.76689 1.0665a39.632 39.632 113.43 0 0-6.7079 15.476l-2.9895 15.172a170.88 170.88 99.136 0 0-1.9042 11.84l-1.1298 9.0381a5.1402 5.1402 47.712 0 0 5.2531 5.7755l2.6962-0.08009a6.1985 6.1985 134.23 0 0 6.0144-6.1781l0.11127-39.055a50.529 50.529 96.935 0 1 1.4388-11.829l0.06562-0.26903a1.167 1.167 24.713 0 0-2.0812-0.95784z" fill="#ddd"/>
  <path transform="matrix(1.3968 0 0 1.4187 -30.909 -23.711)" d="m48.125 41.179 10.161-3.1204c4.8492-1.4891 10.004-1.5229 14.861-0.09727 4.1523 1.472 7.5532 4.6086 9.4387 8.7053 1.839 4.07 1.6832 8.81-0.41914 12.755-2.1129 4.3234-5.638 7.7372-9.9485 9.6341l-3.5006 1.648c-0.77812 0.36632-1.2131 1.2361-1.0514 2.1023s0.87779 1.5025 1.7309 1.5379l1.4161 0.05878c5.0583 0.20994 10.081-1.0059 14.532-3.5175 3.4156-2.3139 5.9833-5.7454 7.2902-9.7428 1.6451-4.3372 2.2128-9.0281 1.6511-13.643-0.53008-4.8724-2.5842-9.4275-5.8504-12.974-2.7187-2.6742-5.9009-4.7948-9.3811-6.2513-4.0051-1.7618-8.458-2.1362-12.695-1.0674-0.62018 0.12212-1.2404 0.24425-1.8606 0.36637-4.9828 0.98118-9.6328 3.2988-13.484 6.7203l-4.437 3.9424c-0.59416 0.52792-0.75229 1.4119-0.37948 2.1215s1.1753 1.0518 1.9257 0.82133z" fill="#ddd"/>
 </g>
</svg>
